#N canvas -8 -8 1920 997 10;
#X text 177 277 creation arguments are OSC address;
#X text 179 238 set message to change OSC address;
#X text 164 48 1 Set IP Address : network address;
#X text 164 68 2 Set Ports (sending and listening);
#X text 164 87 3 Set OSC Addresses (routing osc data;
#X text 155 26 Key Settings;
#X floatatom 43 194 5 0 0 0 - - -;
#X obj 455 322 select 0 1 2 3 4 5 6 7 8;
#X floatatom 495 579 5 0 0 0 - - -;
#X obj 495 733 *~;
#X obj 486 778 dac~;
#X obj 494 548 mtof;
#X obj 492 487 + 0;
#X obj 610 639 vline~;
#X floatatom 799 423 5 0 0 0 - - -;
#X obj 799 370 loadbang;
#X msg 450 393 0;
#X floatatom 455 258 5 0 0 0 - - -;
#N canvas 157 228 623 462 oscReceive 1;
#X obj 55 184 netreceive -u -b;
#X msg 78 143 listen 0;
#X text 152 143 stop listening;
#X text 64 58 packets from network;
#X text 173 177 UDP packets \, binary output, f 13;
#X obj 45 314 print;
#X obj 45 272 oscparse;
#X text 150 114 listen on port 8000;
#X obj 177 269 oscparse;
#X obj 177 293 list trim;
#X floatatom 67 379 5 0 0 0 - - -;
#X text 241 267 Parse the OSC message;
#X obj 177 319 route unity;
#X obj 66 356 route trigger;
#X obj 67 406 s osctrig;
#X msg 66 115 listen 8000;
#X obj 66 84 loadbang;
#X floatatom 171 381 5 0 0 0 - - -;
#X obj 170 358 route tempo;
#X obj 171 408 s osctempo;
#X floatatom 266 381 5 0 0 0 - - -;
#X obj 265 358 route playseq;
#X obj 266 408 s oscplayseq;
#X floatatom 364 381 5 0 0 0 - - -;
#X obj 363 358 route colwall;
#X obj 364 408 s oscwall;
#X floatatom 580 380 5 0 0 0 - - -;
#X obj 580 407 s brickhit;
#X floatatom 462 380 5 0 0 0 - - -;
#X obj 462 357 route playpaddle;
#X obj 579 357 route playbrick;
#X obj 462 407 s paddlehit;
#X connect 0 0 6 0;
#X connect 0 0 8 0;
#X connect 1 0 0 0;
#X connect 6 0 5 0;
#X connect 8 0 9 0;
#X connect 9 0 12 0;
#X connect 10 0 14 0;
#X connect 12 0 13 0;
#X connect 12 0 18 0;
#X connect 12 0 21 0;
#X connect 12 0 24 0;
#X connect 12 0 29 0;
#X connect 12 0 30 0;
#X connect 13 0 10 0;
#X connect 15 0 0 0;
#X connect 16 0 15 0;
#X connect 17 0 19 0;
#X connect 18 0 17 0;
#X connect 20 0 22 0;
#X connect 21 0 20 0;
#X connect 23 0 25 0;
#X connect 24 0 23 0;
#X connect 26 0 27 0;
#X connect 28 0 31 0;
#X connect 29 0 28 0;
#X connect 30 0 26 0;
#X restore 47 142 pd oscReceive;
#X obj 47 36 tgl 15 0 empty empty empty 17 7 0 10 -262144 -1 -1 1 1
;
#X msg 47 61 \; pd dsp \$1;
#X msg 489 393 2;
#X msg 530 393 4;
#X msg 572 393 5;
#X msg 609 394 7;
#X msg 650 394 9;
#X msg 692 394 11;
#X msg 726 394 12;
#X obj 455 225 r osctrig;
#X obj 44 278 oscformat PD message;
#X msg 76 239 set PD message;
#N canvas 727 97 450 300 oscSend 0;
#X msg 158 207 disconnect;
#X obj 61 253 netsend -u -b;
#X obj 59 55 list prepend send;
#X obj 59 80 list trim;
#X obj 59 29 r oscOut;
#X text 301 163 send to port 8001;
#X obj 147 108 loadbang;
#X msg 147 148 connect localhost 8001;
#X msg 148 175 connect 127.0.0.1 8001;
#X connect 0 0 1 0;
#X connect 2 0 3 0;
#X connect 3 0 1 0;
#X connect 4 0 2 0;
#X connect 6 0 7 0;
#X connect 7 0 1 0;
#X connect 8 0 1 0;
#X restore 47 118 pd oscSend;
#X obj 44 313 s oscOut;
#X obj 1374 958 *~;
#X obj 1365 1003 dac~;
#X obj 1381 627 mtof;
#X obj 1380 586 + 0;
#X obj 1363 338 metro 4000;
#X obj 1365 305 tgl 15 0 empty empty empty 17 7 0 10 -262144 -1 -1
0 1;
#X floatatom 1421 309 5 0 0 0 - - -;
#X obj 1344 372 f;
#X obj 1387 374 + 1;
#X obj 1365 439 select 0 1 2 3;
#X obj 1543 831 vline~;
#X floatatom 1527 524 5 0 0 0 - - -;
#X obj 1527 471 loadbang;
#X obj 1364 407 mod 4;
#X obj 1008 375 *~;
#X obj 999 420 dac~;
#X obj 1072 343 vline~;
#X obj 1008 311 noise~;
#X obj 1071 251 bng 15 250 50 0 empty empty empty 17 7 0 10 -262144
-1 -1;
#X obj 1330 827 phasor~;
#X floatatom 1328 768 5 0 0 0 - - -;
#X obj 1404 795 * -1;
#X obj 1373 885 +~;
#X obj 1371 918 -~ 1;
#X msg 1406 764 0;
#X msg 1454 764 0.5;
#X obj 1427 734 bng 15 250 50 0 empty empty empty 17 7 0 10 -262144
-1 -1;
#X obj 1426 709 loadbang;
#X obj 1481 258 r osctempo;
#X obj 1406 232 loadbang;
#X msg 1422 276 500;
#X obj 1312 233 r oscplayseq;
#X obj 450 653 osc~;
#X obj 1065 213 r oscwall;
#X msg 1377 492 -5;
#X msg 1543 779 0.5 25 \, 0 100 75;
#X msg 1527 498 48;
#X obj 502 658 osc~;
#X msg 799 397 60;
#X obj 504 631 * 1.5;
#X msg 610 587 0.85 100 \, 0 500 500;
#X msg 1072 291 1 25 \, 0 1000 75;
#X text 451 198 Tirgger when picking up rotating cube...;
#X text 986 186 Trigger noise burst when running into a wall;
#X text 1298 181 Sequence playback: tempo increases as more cubes are
collected.;
#X obj 2134 377 *~;
#X obj 2125 422 dac~;
#X obj 2198 345 vline~;
#X obj 2197 253 bng 15 250 50 0 empty empty empty 17 7 0 10 -262144
-1 -1;
#X obj 1405 826 phasor~;
#X obj 2134 321 phasor~;
#X msg 2198 293 1 25 \, 0 100 75;
#X obj 1779 374 *~;
#X obj 1770 419 dac~;
#X obj 1843 342 vline~;
#X obj 1842 250 bng 15 250 50 0 empty empty empty 17 7 0 10 -262144
-1 -1;
#X obj 1779 318 phasor~;
#X msg 1843 290 1 25 \, 0 100 75;
#X text 2118 188 *OURS* Trigger when brick is hit;
#X text 1757 185 *OURS* Trigger when ball hits paddle;
#X obj 1836 212 r paddlehit;
#X obj 2197 215 r brickhit;
#X floatatom 2131 272 5 0 0 0 - - -;
#X floatatom 1778 276 5 0 0 0 - - -;
#X msg 1418 492 +5;
#X msg 1460 492 2;
#X msg 1338 492 -2;
#X connect 6 0 29 0;
#X connect 7 0 16 0;
#X connect 7 1 21 0;
#X connect 7 2 22 0;
#X connect 7 3 23 0;
#X connect 7 4 24 0;
#X connect 7 5 25 0;
#X connect 7 6 26 0;
#X connect 7 7 27 0;
#X connect 7 8 16 0;
#X connect 8 0 65 0;
#X connect 8 0 72 0;
#X connect 9 0 10 0;
#X connect 9 0 10 1;
#X connect 11 0 8 0;
#X connect 12 0 11 0;
#X connect 12 0 73 0;
#X connect 13 0 9 1;
#X connect 14 0 12 1;
#X connect 15 0 71 0;
#X connect 16 0 12 0;
#X connect 17 0 7 0;
#X connect 19 0 20 0;
#X connect 21 0 12 0;
#X connect 22 0 12 0;
#X connect 23 0 12 0;
#X connect 24 0 12 0;
#X connect 25 0 12 0;
#X connect 26 0 12 0;
#X connect 27 0 12 0;
#X connect 28 0 17 0;
#X connect 29 0 32 0;
#X connect 30 0 29 0;
#X connect 33 0 34 0;
#X connect 33 0 34 1;
#X connect 35 0 53 0;
#X connect 36 0 35 0;
#X connect 37 0 40 0;
#X connect 37 0 68 0;
#X connect 38 0 37 0;
#X connect 39 0 37 1;
#X connect 40 0 41 0;
#X connect 40 0 46 0;
#X connect 41 0 40 1;
#X connect 42 0 99 0;
#X connect 42 1 67 0;
#X connect 42 2 97 0;
#X connect 42 3 98 0;
#X connect 43 0 33 1;
#X connect 44 0 36 1;
#X connect 45 0 69 0;
#X connect 46 0 42 0;
#X connect 47 0 48 0;
#X connect 47 0 48 1;
#X connect 49 0 47 1;
#X connect 50 0 47 0;
#X connect 51 0 74 0;
#X connect 52 0 55 0;
#X connect 53 0 52 0;
#X connect 53 0 54 0;
#X connect 54 0 82 0;
#X connect 55 0 56 0;
#X connect 56 0 33 0;
#X connect 57 0 52 1;
#X connect 58 0 82 1;
#X connect 59 0 57 0;
#X connect 59 0 58 0;
#X connect 60 0 59 0;
#X connect 61 0 39 0;
#X connect 62 0 63 0;
#X connect 63 0 39 0;
#X connect 64 0 38 0;
#X connect 64 0 63 0;
#X connect 65 0 9 0;
#X connect 66 0 51 0;
#X connect 67 0 36 0;
#X connect 68 0 43 0;
#X connect 69 0 44 0;
#X connect 70 0 9 0;
#X connect 71 0 14 0;
#X connect 72 0 70 0;
#X connect 73 0 13 0;
#X connect 74 0 49 0;
#X connect 78 0 79 0;
#X connect 78 0 79 1;
#X connect 80 0 78 1;
#X connect 81 0 84 0;
#X connect 82 0 55 1;
#X connect 83 0 78 0;
#X connect 84 0 80 0;
#X connect 85 0 86 0;
#X connect 85 0 86 1;
#X connect 87 0 85 1;
#X connect 88 0 90 0;
#X connect 89 0 85 0;
#X connect 90 0 87 0;
#X connect 93 0 88 0;
#X connect 94 0 81 0;
#X connect 95 0 83 0;
#X connect 96 0 89 0;
#X connect 97 0 36 0;
#X connect 98 0 36 0;
#X connect 99 0 36 0;
