#N canvas -8 -8 1920 997 10;
#X text 177 277 creation arguments are OSC address;
#X text 179 238 set message to change OSC address;
#X text 164 48 1 Set IP Address : network address;
#X text 164 68 2 Set Ports (sending and listening);
#X text 164 87 3 Set OSC Addresses (routing osc data;
#X text 155 26 Key Settings;
#X floatatom 43 194 5 0 0 0 - - -;
#X obj 455 322 select 0 1 2 3 4 5 6 7 8;
#X floatatom 495 579 5 0 0 0 - - -;
#X obj 495 733 *~;
#X obj 486 778 dac~;
#X obj 494 548 mtof;
#X obj 492 487 + 0;
#X obj 610 639 vline~;
#X floatatom 799 423 5 0 0 0 - - -;
#X obj 799 370 loadbang;
#X msg 450 393 0;
#X floatatom 455 258 5 0 0 0 - - -;
#N canvas 1099 23 623 462 oscReceive 0;
#X obj 55 184 netreceive -u -b;
#X msg 78 143 listen 0;
#X text 152 143 stop listening;
#X text 64 58 packets from network;
#X text 173 177 UDP packets \, binary output, f 13;
#X obj 45 314 print;
#X obj 45 272 oscparse;
#X text 150 114 listen on port 8000;
#X obj 177 269 oscparse;
#X obj 177 293 list trim;
#X floatatom 140 380 5 0 0 0 - - -;
#X text 241 267 Parse the OSC message;
#X obj 177 319 route unity;
#X obj 139 357 route trigger;
#X obj 140 407 s osctrig;
#X msg 66 115 listen 8000;
#X obj 66 84 loadbang;
#X floatatom 244 382 5 0 0 0 - - -;
#X obj 243 359 route tempo;
#X obj 244 409 s osctempo;
#X floatatom 339 382 5 0 0 0 - - -;
#X obj 338 359 route playseq;
#X obj 339 409 s oscplayseq;
#X floatatom 437 382 5 0 0 0 - - -;
#X obj 436 359 route colwall;
#X obj 437 409 s oscwall;
#X connect 0 0 6 0;
#X connect 0 0 8 0;
#X connect 1 0 0 0;
#X connect 6 0 5 0;
#X connect 8 0 9 0;
#X connect 9 0 12 0;
#X connect 10 0 14 0;
#X connect 12 0 13 0;
#X connect 12 0 18 0;
#X connect 12 0 21 0;
#X connect 12 0 24 0;
#X connect 13 0 10 0;
#X connect 15 0 0 0;
#X connect 16 0 15 0;
#X connect 17 0 19 0;
#X connect 18 0 17 0;
#X connect 20 0 22 0;
#X connect 21 0 20 0;
#X connect 23 0 25 0;
#X connect 24 0 23 0;
#X restore 47 142 pd oscReceive;
#X obj 47 36 tgl 15 0 empty empty empty 17 7 0 10 -262144 -1 -1 1 1
;
#X msg 47 61 \; pd dsp \$1;
#X msg 489 393 2;
#X msg 530 393 4;
#X msg 572 393 5;
#X msg 609 394 7;
#X msg 650 394 9;
#X msg 692 394 11;
#X msg 726 394 12;
#X obj 455 225 r osctrig;
#X obj 44 278 oscformat PD message;
#X msg 76 239 set PD message;
#N canvas 727 97 450 300 oscSend 0;
#X msg 158 207 disconnect;
#X obj 61 253 netsend -u -b;
#X obj 59 55 list prepend send;
#X obj 59 80 list trim;
#X msg 150 175 connect 127.0.0.1 8001;
#X obj 59 29 r oscOut;
#X text 301 163 send to port 8001;
#X msg 147 148 connect localhost 8001;
#X obj 147 108 loadbang;
#X connect 0 0 1 0;
#X connect 2 0 3 0;
#X connect 3 0 1 0;
#X connect 4 0 1 0;
#X connect 5 0 2 0;
#X connect 7 0 1 0;
#X connect 8 0 7 0;
#X restore 47 118 pd oscSend;
#X obj 44 313 s oscOut;
#X obj 968 378 *~;
#X obj 959 423 dac~;
#X obj 1032 346 vline~;
#X obj 968 314 noise~;
#X obj 1031 254 bng 15 250 50 0 empty empty empty 17 7 0 10 -262144
-1 -1;
#X obj 450 653 osc~;
#X obj 1025 216 r oscwall;
#X obj 502 658 osc~;
#X obj 504 631 * 1.5;
#X text 451 198 Tirgger when picking up rotating cube...;
#X text 946 189 Trigger noise burst when running into a wall;
#X text 1313 188 Sequence playback: tempo increases as more cubes are
collected.;
#X obj 1384 996 *~;
#X obj 1376 1032 dac~;
#X obj 1361 728 mtof;
#X obj 1360 687 + 0;
#X obj 1431 354 metro 4000;
#X obj 1370 310 tgl 15 0 empty empty empty 17 7 0 10 -262144 -1 -1
0 1;
#X floatatom 1426 314 5 0 0 0 - - -;
#X obj 1349 400 f;
#X obj 1392 402 + 1;
#X obj 1539 871 vline~;
#X floatatom 1849 689 5 0 0 0 - - -;
#X obj 1849 636 loadbang;
#X obj 1326 867 phasor~;
#X floatatom 1324 808 5 0 0 0 - - -;
#X obj 1401 866 phasor~;
#X obj 1400 835 * -1;
#X obj 1369 925 +~;
#X obj 1367 958 -~ 1;
#X msg 1402 804 0;
#X msg 1450 804 0.5;
#X obj 1423 774 bng 15 250 50 0 empty empty empty 17 7 0 10 -262144
-1 -1;
#X obj 1422 749 loadbang;
#X obj 1486 263 r osctempo;
#X obj 1411 237 loadbang;
#X obj 1317 238 r oscplayseq;
#X msg 1386 593 2;
#X msg 1425 593 5;
#X msg 1465 594 9;
#X msg 1681 593 14;
#X msg 1223 593 2;
#X msg 1262 593 5;
#X msg 1303 593 9;
#X msg 1346 593 12;
#X msg 1508 593 11;
#X msg 1559 592 2;
#X msg 1599 593 5;
#X msg 1639 593 9;
#X obj 1345 540 select 0 1 2 3 4 5 6 7 8 9 10 11 12 13 14 15;
#X msg 1730 594 2;
#X msg 1770 595 5;
#X msg 1810 595 9;
#X msg 1852 595 12;
#X msg 1849 663 58;
#X obj 2135 989 *~;
#X obj 2127 1025 dac~;
#X obj 2112 721 mtof;
#X obj 2111 680 + 0;
#X obj 2290 864 vline~;
#X floatatom 2346 726 5 0 0 0 - - -;
#X obj 2346 673 loadbang;
#X obj 2077 860 phasor~;
#X floatatom 2075 801 5 0 0 0 - - -;
#X obj 2152 859 phasor~;
#X obj 2151 828 * -1;
#X obj 2120 918 +~;
#X obj 2118 951 -~ 1;
#X msg 2153 797 0;
#X msg 2201 797 0.5;
#X obj 2174 767 bng 15 250 50 0 empty empty empty 17 7 0 10 -262144
-1 -1;
#X obj 2173 742 loadbang;
#X msg 2290 812 0.5 25 \, 0 100 75;
#X msg 1974 586 2;
#X obj 1353 473 mod 16;
#X obj 2098 492 mod 48;
#X msg 2346 700 46;
#X obj 2096 533 select 1 6 9 14 18 22 27 30 34 38 45;
#X msg 2013 586 -1;
#X msg 2054 586 5;
#X msg 2097 586 4;
#X msg 2137 586 0;
#X msg 2176 586 -1;
#X msg 2216 587 2;
#X msg 2259 586 0;
#X msg 2310 585 -3;
#X msg 2350 586 0;
#X msg 2446 586 0;
#X obj 2994 1035 dac~;
#X obj 2984 695 mtof;
#X obj 2983 654 + 0;
#X obj 3046 921 vline~;
#X floatatom 3089 611 5 0 0 0 - - -;
#X obj 3089 558 loadbang;
#X floatatom 2995 862 5 0 0 0 - - -;
#X msg 3089 585 46;
#X msg 2390 586 -1;
#X obj 2956 296 mod 32;
#X obj 3103 920 vline~;
#X obj 2991 973 *~;
#X obj 2946 358 select 0 7 15 23;
#X obj 3202 566 bng 15 250 50 0 empty empty empty 17 7 0 10 -262144
-1 -1;
#X obj 3059 975 *~;
#X obj 3272 1033 dac~;
#X obj 3262 693 mtof;
#X obj 3261 652 + 0;
#X obj 3324 919 vline~;
#X floatatom 3367 609 5 0 0 0 - - -;
#X obj 3367 556 loadbang;
#X floatatom 3273 860 5 0 0 0 - - -;
#X msg 3367 583 46;
#X obj 3381 918 vline~;
#X obj 3269 971 *~;
#X obj 3452 555 bng 15 250 50 0 empty empty empty 17 7 0 10 -262144
-1 -1;
#X obj 3337 973 *~;
#X msg 3324 829 0.1 75 \, 0 1000 500;
#X obj 2698 1047 dac~;
#X obj 2688 707 mtof;
#X obj 2687 666 + 0;
#X obj 2750 933 vline~;
#X floatatom 2793 623 5 0 0 0 - - -;
#X obj 2793 570 loadbang;
#X floatatom 2699 874 5 0 0 0 - - -;
#X msg 2793 597 46;
#X obj 2807 932 vline~;
#X obj 2695 985 *~;
#X obj 2906 578 bng 15 250 50 0 empty empty empty 17 7 0 10 -262144
-1 -1;
#X obj 2763 987 *~;
#X msg 2630 437 -1;
#X msg 2710 437 -1;
#X msg 2753 437 0;
#X msg 2669 437 -3;
#X msg 2926 425 2;
#X msg 2965 425 2;
#X msg 3006 425 2;
#X msg 3049 425 4;
#X msg 2807 880 0.1 75 \, 0 1000 500;
#X msg 2750 843 0.3 75 \, 0 1000 500;
#X msg 3046 831 0.15 75 \, 0 1000 500;
#X msg 3103 868 0.15 75 \, 0 1000 500;
#X msg 3381 866 0.3 75 \, 0 1000 500;
#X msg 3204 423 7;
#X msg 3243 423 5;
#X msg 3284 423 9;
#X msg 3327 423 7;
#X obj 2678 933 phasor~;
#X obj 2973 921 phasor~;
#X obj 3246 919 phasor~;
#X msg 1427 281 200;
#X msg 1539 819 0.4 25 \, 0 100 75;
#X msg 799 397 70;
#X msg 610 587 0.5 100 \, 0 500 500;
#X msg 1032 294 0.5 25 \, 0 1000 75;
#X connect 6 0 29 0;
#X connect 7 0 16 0;
#X connect 7 1 21 0;
#X connect 7 2 22 0;
#X connect 7 3 23 0;
#X connect 7 4 24 0;
#X connect 7 5 25 0;
#X connect 7 6 26 0;
#X connect 7 7 27 0;
#X connect 7 8 16 0;
#X connect 8 0 38 0;
#X connect 8 0 41 0;
#X connect 9 0 10 0;
#X connect 9 0 10 1;
#X connect 11 0 8 0;
#X connect 12 0 11 0;
#X connect 12 0 184 0;
#X connect 13 0 9 1;
#X connect 14 0 12 1;
#X connect 15 0 183 0;
#X connect 16 0 12 0;
#X connect 17 0 7 0;
#X connect 19 0 20 0;
#X connect 21 0 12 0;
#X connect 22 0 12 0;
#X connect 23 0 12 0;
#X connect 24 0 12 0;
#X connect 25 0 12 0;
#X connect 26 0 12 0;
#X connect 27 0 12 0;
#X connect 28 0 17 0;
#X connect 29 0 32 0;
#X connect 30 0 29 0;
#X connect 33 0 34 0;
#X connect 33 0 34 1;
#X connect 35 0 33 1;
#X connect 36 0 33 0;
#X connect 37 0 185 0;
#X connect 38 0 9 0;
#X connect 39 0 37 0;
#X connect 40 0 9 0;
#X connect 41 0 40 0;
#X connect 45 0 46 0;
#X connect 45 0 46 1;
#X connect 47 0 58 0;
#X connect 48 0 47 0;
#X connect 49 0 52 0;
#X connect 49 0 182 0;
#X connect 49 0 105 0;
#X connect 50 0 49 0;
#X connect 51 0 49 1;
#X connect 52 0 53 0;
#X connect 52 0 107 0;
#X connect 52 0 108 0;
#X connect 52 0 130 0;
#X connect 53 0 52 1;
#X connect 54 0 45 1;
#X connect 55 0 48 1;
#X connect 56 0 87 0;
#X connect 57 0 61 0;
#X connect 58 0 57 0;
#X connect 58 0 60 0;
#X connect 59 0 61 1;
#X connect 60 0 59 0;
#X connect 61 0 62 0;
#X connect 62 0 45 0;
#X connect 63 0 57 1;
#X connect 64 0 59 1;
#X connect 65 0 63 0;
#X connect 65 0 64 0;
#X connect 66 0 65 0;
#X connect 67 0 51 0;
#X connect 68 0 181 0;
#X connect 69 0 50 0;
#X connect 69 0 181 0;
#X connect 70 0 48 0;
#X connect 71 0 48 0;
#X connect 72 0 48 0;
#X connect 73 0 48 0;
#X connect 74 0 48 0;
#X connect 75 0 48 0;
#X connect 76 0 48 0;
#X connect 77 0 48 0;
#X connect 78 0 48 0;
#X connect 79 0 48 0;
#X connect 80 0 48 0;
#X connect 81 0 48 0;
#X connect 82 0 74 0;
#X connect 82 1 75 0;
#X connect 82 2 76 0;
#X connect 82 3 77 0;
#X connect 82 4 70 0;
#X connect 82 5 71 0;
#X connect 82 6 72 0;
#X connect 82 7 78 0;
#X connect 82 8 79 0;
#X connect 82 9 80 0;
#X connect 82 10 81 0;
#X connect 82 11 73 0;
#X connect 82 12 83 0;
#X connect 82 13 84 0;
#X connect 82 14 85 0;
#X connect 82 15 86 0;
#X connect 83 0 48 0;
#X connect 84 0 48 0;
#X connect 85 0 48 0;
#X connect 86 0 48 0;
#X connect 87 0 55 0;
#X connect 88 0 89 0;
#X connect 88 0 89 1;
#X connect 90 0 96 0;
#X connect 91 0 90 0;
#X connect 92 0 88 1;
#X connect 93 0 91 1;
#X connect 94 0 109 0;
#X connect 95 0 99 0;
#X connect 96 0 95 0;
#X connect 96 0 98 0;
#X connect 97 0 99 1;
#X connect 98 0 97 0;
#X connect 99 0 100 0;
#X connect 100 0 88 0;
#X connect 101 0 95 1;
#X connect 102 0 97 1;
#X connect 103 0 101 0;
#X connect 103 0 102 0;
#X connect 104 0 103 0;
#X connect 105 0 92 0;
#X connect 106 0 91 0;
#X connect 107 0 82 0;
#X connect 108 0 110 0;
#X connect 109 0 93 0;
#X connect 110 0 106 0;
#X connect 110 1 111 0;
#X connect 110 2 112 0;
#X connect 110 3 113 0;
#X connect 110 4 114 0;
#X connect 110 5 115 0;
#X connect 110 6 116 0;
#X connect 110 7 117 0;
#X connect 110 8 118 0;
#X connect 110 9 119 0;
#X connect 110 10 129 0;
#X connect 110 11 120 0;
#X connect 111 0 91 0;
#X connect 112 0 91 0;
#X connect 113 0 91 0;
#X connect 114 0 91 0;
#X connect 115 0 91 0;
#X connect 116 0 91 0;
#X connect 117 0 91 0;
#X connect 118 0 91 0;
#X connect 119 0 91 0;
#X connect 120 0 96 0;
#X connect 122 0 127 0;
#X connect 123 0 122 0;
#X connect 124 0 132 1;
#X connect 125 0 123 1;
#X connect 126 0 128 0;
#X connect 127 0 179 0;
#X connect 128 0 125 0;
#X connect 129 0 91 0;
#X connect 130 0 133 0;
#X connect 131 0 135 1;
#X connect 132 0 121 0;
#X connect 133 0 165 0;
#X connect 133 0 174 0;
#X connect 133 0 161 0;
#X connect 133 1 166 0;
#X connect 133 1 175 0;
#X connect 133 1 164 0;
#X connect 133 2 167 0;
#X connect 133 2 176 0;
#X connect 133 2 162 0;
#X connect 133 3 168 0;
#X connect 133 3 177 0;
#X connect 133 3 163 0;
#X connect 134 0 171 0;
#X connect 134 0 172 0;
#X connect 135 0 121 1;
#X connect 137 0 142 0;
#X connect 138 0 137 0;
#X connect 139 0 145 1;
#X connect 140 0 138 1;
#X connect 141 0 143 0;
#X connect 142 0 180 0;
#X connect 143 0 140 0;
#X connect 144 0 147 1;
#X connect 145 0 136 0;
#X connect 146 0 148 0;
#X connect 146 0 173 0;
#X connect 147 0 136 1;
#X connect 148 0 139 0;
#X connect 150 0 155 0;
#X connect 151 0 150 0;
#X connect 152 0 158 1;
#X connect 153 0 151 1;
#X connect 154 0 156 0;
#X connect 155 0 178 0;
#X connect 156 0 153 0;
#X connect 157 0 160 1;
#X connect 158 0 149 0;
#X connect 159 0 170 0;
#X connect 159 0 169 0;
#X connect 160 0 149 1;
#X connect 161 0 151 0;
#X connect 161 0 159 0;
#X connect 162 0 151 0;
#X connect 162 0 159 0;
#X connect 163 0 151 0;
#X connect 163 0 159 0;
#X connect 164 0 151 0;
#X connect 164 0 159 0;
#X connect 165 0 123 0;
#X connect 165 0 134 0;
#X connect 166 0 123 0;
#X connect 166 0 134 0;
#X connect 167 0 123 0;
#X connect 167 0 134 0;
#X connect 168 0 123 0;
#X connect 168 0 134 0;
#X connect 169 0 157 0;
#X connect 170 0 152 0;
#X connect 171 0 124 0;
#X connect 172 0 131 0;
#X connect 173 0 144 0;
#X connect 174 0 138 0;
#X connect 174 0 146 0;
#X connect 175 0 138 0;
#X connect 175 0 146 0;
#X connect 176 0 138 0;
#X connect 176 0 146 0;
#X connect 177 0 138 0;
#X connect 177 0 146 0;
#X connect 178 0 158 0;
#X connect 178 0 160 0;
#X connect 179 0 132 0;
#X connect 179 0 135 0;
#X connect 180 0 145 0;
#X connect 180 0 147 0;
#X connect 181 0 51 0;
#X connect 182 0 54 0;
#X connect 183 0 14 0;
#X connect 184 0 13 0;
#X connect 185 0 35 0;
