#N canvas -8 -8 1920 997 10;
#X text 177 277 creation arguments are OSC address;
#X text 179 238 set message to change OSC address;
#X text 164 48 1 Set IP Address : network address;
#X text 164 68 2 Set Ports (sending and listening);
#X text 164 87 3 Set OSC Addresses (routing osc data;
#X text 155 26 Key Settings;
#X floatatom 43 194 5 0 0 0 - - -;
#N canvas 66 425 623 462 oscReceive 0;
#X obj 55 184 netreceive -u -b;
#X msg 78 143 listen 0;
#X text 152 143 stop listening;
#X text 64 58 packets from network;
#X text 173 177 UDP packets \, binary output, f 13;
#X obj 45 314 print;
#X obj 45 272 oscparse;
#X text 150 114 listen on port 8000;
#X obj 177 269 oscparse;
#X obj 177 293 list trim;
#X floatatom 139 382 5 0 0 0 - - -;
#X text 241 267 Parse the OSC message;
#X obj 177 319 route unity;
#X msg 66 115 listen 8000;
#X obj 66 84 loadbang;
#X floatatom 244 382 5 0 0 0 - - -;
#X floatatom 354 382 5 0 0 0 - - -;
#X obj 354 409 s oscplayseq;
#X obj 353 359 route oscplayseq;
#X obj 139 409 s paddlehit;
#X obj 138 358 route playpaddle;
#X obj 243 359 route playbrick;
#X obj 244 409 s brickhit;
#X floatatom 482 382 5 0 0 0 - - -;
#X obj 481 359 route lose;
#X obj 482 409 s losesound;
#X connect 0 0 6 0;
#X connect 0 0 8 0;
#X connect 1 0 0 0;
#X connect 6 0 5 0;
#X connect 8 0 9 0;
#X connect 9 0 12 0;
#X connect 10 0 19 0;
#X connect 12 0 18 0;
#X connect 12 0 20 0;
#X connect 12 0 21 0;
#X connect 12 0 24 0;
#X connect 13 0 0 0;
#X connect 14 0 13 0;
#X connect 15 0 22 0;
#X connect 16 0 17 0;
#X connect 18 0 16 0;
#X connect 20 0 10 0;
#X connect 21 0 15 0;
#X connect 23 0 25 0;
#X connect 24 0 23 0;
#X restore 47 142 pd oscReceive;
#X obj 47 36 tgl 15 0 empty empty empty 17 7 0 10 -262144 -1 -1 1 1
;
#X msg 47 61 \; pd dsp \$1;
#X obj 44 278 oscformat PD message;
#X msg 76 239 set PD message;
#N canvas 727 97 450 300 oscSend 0;
#X msg 158 207 disconnect;
#X obj 61 253 netsend -u -b;
#X obj 59 55 list prepend send;
#X obj 59 80 list trim;
#X msg 150 175 connect 127.0.0.1 8001;
#X obj 59 29 r oscOut;
#X text 301 163 send to port 8001;
#X msg 147 148 connect localhost 8001;
#X obj 147 108 loadbang;
#X connect 0 0 1 0;
#X connect 2 0 3 0;
#X connect 3 0 1 0;
#X connect 4 0 1 0;
#X connect 5 0 2 0;
#X connect 7 0 1 0;
#X connect 8 0 7 0;
#X restore 47 118 pd oscSend;
#X obj 44 313 s oscOut;
#X obj 1388 973 *~;
#X obj 1376 1032 dac~;
#X obj 1361 728 mtof;
#X obj 1360 687 + 0;
#X obj 1427 257 metro 4000;
#X obj 1366 213 tgl 15 0 empty empty empty 17 7 0 10 -262144 -1 -1
0 1;
#X floatatom 1422 217 5 0 0 0 - - -;
#X obj 1341 282 f;
#X obj 1384 284 + 1;
#X obj 1539 871 vline~;
#X floatatom 1849 689 5 0 0 0 - - -;
#X obj 1849 636 loadbang;
#X obj 1326 867 phasor~;
#X floatatom 1324 809 5 0 0 0 - - -;
#X obj 1401 866 phasor~;
#X obj 1400 835 * -1;
#X obj 1371 935 -~ 1;
#X msg 1402 804 0;
#X msg 1450 804 0.5;
#X obj 1423 774 bng 15 250 50 0 empty empty empty 17 7 0 10 -262144
-1 -1;
#X obj 1422 749 loadbang;
#X obj 1482 166 r osctempo;
#X obj 1407 140 loadbang;
#X msg 1386 593 2;
#X msg 1425 593 5;
#X msg 1465 594 9;
#X msg 1681 593 14;
#X msg 1223 593 2;
#X msg 1262 593 5;
#X msg 1303 593 9;
#X msg 1346 593 12;
#X msg 1508 593 11;
#X msg 1559 592 2;
#X msg 1599 593 5;
#X msg 1639 593 9;
#X obj 1345 540 select 0 1 2 3 4 5 6 7 8 9 10 11 12 13 14 15;
#X msg 1730 594 2;
#X msg 1770 595 5;
#X msg 1810 595 9;
#X msg 1852 595 12;
#X msg 1849 663 58;
#X obj 2112 931 *~;
#X obj 2104 967 dac~;
#X obj 2089 663 mtof;
#X obj 2088 622 + 0;
#X obj 2267 806 vline~;
#X floatatom 2323 668 5 0 0 0 - - -;
#X obj 2323 615 loadbang;
#X obj 2054 802 phasor~;
#X floatatom 2052 743 5 0 0 0 - - -;
#X obj 2129 801 phasor~;
#X obj 2128 770 * -1;
#X obj 2097 860 +~;
#X obj 2095 893 -~ 1;
#X msg 2130 739 0;
#X obj 2151 709 bng 15 250 50 0 empty empty empty 17 7 0 10 -262144
-1 -1;
#X obj 2150 684 loadbang;
#X msg 1951 528 2;
#X obj 1353 473 mod 16;
#X obj 2075 434 mod 48;
#X obj 2073 475 select 1 6 9 14 18 22 27 30 34 38 45;
#X msg 1990 528 -1;
#X msg 2031 528 5;
#X msg 2074 528 4;
#X msg 2114 528 0;
#X msg 2153 528 -1;
#X msg 2193 529 2;
#X msg 2236 528 0;
#X msg 2287 527 -3;
#X msg 2327 528 0;
#X msg 2423 528 0;
#X obj 2935 887 dac~;
#X obj 2925 554 mtof;
#X obj 2924 513 + 0;
#X obj 2987 780 vline~;
#X floatatom 3030 470 5 0 0 0 - - -;
#X obj 3030 417 loadbang;
#X floatatom 2936 721 5 0 0 0 - - -;
#X msg 3030 444 46;
#X msg 2367 528 -1;
#X obj 2887 190 mod 32;
#X obj 2932 832 *~;
#X obj 2886 229 select 0 7 15 23;
#X obj 3143 425 bng 15 250 50 0 empty empty empty 17 7 0 10 -262144
-1 -1;
#X obj 3213 884 dac~;
#X obj 3203 552 mtof;
#X obj 3202 511 + 0;
#X obj 3265 778 vline~;
#X floatatom 3308 468 5 0 0 0 - - -;
#X obj 3308 415 loadbang;
#X floatatom 3214 719 5 0 0 0 - - -;
#X msg 3308 442 46;
#X obj 3322 777 vline~;
#X obj 3210 830 *~;
#X obj 3396 419 bng 15 250 50 0 empty empty empty 17 7 0 10 -262144
-1 -1;
#X obj 3278 832 *~;
#X msg 3265 688 0.1 75 \, 0 1000 500;
#X obj 2642 887 dac~;
#X obj 2629 566 mtof;
#X obj 2628 525 + 0;
#X obj 2691 792 vline~;
#X floatatom 2734 482 5 0 0 0 - - -;
#X obj 2734 429 loadbang;
#X floatatom 2640 733 5 0 0 0 - - -;
#X msg 2734 456 46;
#X obj 2748 791 vline~;
#X obj 2636 844 *~;
#X obj 2847 437 bng 15 250 50 0 empty empty empty 17 7 0 10 -262144
-1 -1;
#X obj 2704 846 *~;
#X msg 2571 296 -1;
#X msg 2651 296 -1;
#X msg 2694 296 0;
#X msg 2610 296 -3;
#X msg 2867 284 2;
#X msg 2906 284 2;
#X msg 2947 284 2;
#X msg 2990 284 4;
#X msg 2748 739 0.1 75 \, 0 1000 500;
#X msg 2691 702 0.3 75 \, 0 1000 500;
#X msg 2989 741 0.15 75 \, 0 1000 500;
#X msg 3322 725 0.3 75 \, 0 1000 500;
#X msg 3145 282 7;
#X msg 3184 282 5;
#X msg 3225 282 9;
#X msg 3268 282 7;
#X obj 1313 141 r oscplayseq;
#X text 1310 113 Sequence playback: theme song plays while game is
running;
#X text 1088 477 This module plays back the melody sequence;
#X text 2070 380 This module plays back the bass sequence;
#X text 2886 126 This module plays back the chord sequence;
#X text 2401 296 these are the bottom notes;
#X text 2766 284 the middle notes;
#X text 3055 284 the top notes;
#X text 2428 638 each voice is panned differnetly;
#X text 2772 684 strong left pan;
#X text 3343 669 strong right pan;
#X text 2942 688 center pan;
#X obj 2619 792 osc~;
#X obj 2914 780 osc~;
#X obj 3187 778 osc~;
#X msg 1423 184 300;
#X msg 2323 642 46;
#X msg 2178 739 0.1;
#X msg 2267 754 0.3 25 \, 0 100 75;
#X obj 1050 870 s delayTime;
#X floatatom 1051 836 5 0 0 0 - - -;
#X obj 1342 343 s beatCounter;
#X obj 1354 431 r beatCounter;
#X obj 2074 398 r beatCounter;
#X obj 2885 158 r beatCounter;
#X obj 1444 311 s metronome;
#X obj 1537 780 r metronome;
#X obj 2263 713 r metronome;
#X obj 1373 902 +~;
#N canvas -174 49 1701 988 delayLine 0;
#X obj 344 42 r delayTime;
#X floatatom 347 76 5 0 0 0 - - -;
#X obj 345 111 delread4~ del_line;
#X obj 338 168 +~;
#X obj 40 184 delwrite~ del_line 2000;
#X obj 221 114 inlet~;
#X floatatom 215 204 5 0 0 0 - - -;
#X obj 236 258 *~;
#X obj 336 248 outlet~;
#X obj 211 171 r delayFeedback;
#X connect 0 0 1 0;
#X connect 1 0 2 0;
#X connect 2 0 3 1;
#X connect 3 0 7 0;
#X connect 3 0 8 0;
#X connect 5 0 3 0;
#X connect 5 0 4 0;
#X connect 6 0 7 1;
#X connect 7 0 4 0;
#X connect 9 0 6 0;
#X restore 1388 1002 pd delayLine;
#X floatatom 912 835 5 0 0 0 - - -;
#X obj 910 863 s delayFeedback;
#X msg 1049 799 115;
#X obj 970 742 loadbang;
#X obj 972 769 bng 15 250 50 0 empty empty empty 17 7 0 10 -262144
-1 -1;
#X obj 811 378 dac~;
#X obj 887 178 bng 15 250 50 0 empty empty empty 17 7 0 10 -262144
-1 -1;
#X obj 477 301 *~;
#X obj 468 346 dac~;
#X obj 541 269 vline~;
#X obj 540 177 bng 15 250 50 0 empty empty empty 17 7 0 10 -262144
-1 -1;
#X obj 534 139 r paddlehit;
#X obj 887 140 r brickhit;
#X text 455 112 Trigger when ball hits paddle;
#X text 808 113 Trigger when brick is hit;
#X obj 577 558 r losesound;
#X obj 577 601 bng 15 250 50 0 empty empty empty 17 7 0 10 -262144
-1 -1;
#X text 547 520 Trigger when ball is missed;
#X obj 448 250 osc~;
#X obj 687 649 noise~;
#X obj 824 312 *~;
#X obj 879 271 vline~;
#X obj 688 761 *~;
#X obj 752 729 vline~;
#X obj 680 818 dac~;
#X obj 772 246 phasor~;
#X text 919 725 delay effect processor;
#N canvas 17 91 1701 988 delayLine2 0;
#X floatatom 347 76 5 0 0 0 - - -;
#X obj 345 111 delread4~ del_line;
#X obj 338 168 +~;
#X obj 40 184 delwrite~ del_line 2000;
#X obj 221 114 inlet~;
#X floatatom 215 204 5 0 0 0 - - -;
#X obj 236 258 *~;
#X obj 336 248 outlet~;
#X obj 344 42 r delayTime2;
#X obj 211 171 r delayFeedback2;
#X connect 0 0 1 0;
#X connect 1 0 2 1;
#X connect 2 0 6 0;
#X connect 2 0 7 0;
#X connect 4 0 2 0;
#X connect 4 0 3 0;
#X connect 5 0 6 1;
#X connect 6 0 3 0;
#X connect 8 0 0 0;
#X connect 9 0 5 0;
#X restore 820 344 pd delayLine2;
#X text 1471 999 melody section has delay;
#X msg 448 201 622.2;
#X msg 1539 819 0.15 25 \, 0 100 75;
#X msg 912 804 0.7;
#X msg 576 706 open fail.wav;
#X msg 531 691 start;
#X obj 538 754 readsf~ 2;
#X obj 551 816 dac~;
#X obj 625 743 bng 15 250 50 0 empty empty empty 17 7 0 10 -262144
-1 -1;
#X obj 571 645 loadbang;
#X msg 541 217 0.7 50 \, 0 200 50;
#X msg 772 200 233;
#X text 368 708 pre-recorded sample plays;
#X text 699 608 a noise fade plays simultaneously;
#X msg 747 626 0.05 25 \, 0 1000 100;
#X text 2858 909 there are 3 voices to make the triads;
#X msg 842 219 0.8 150 \, 0.2 100 100 \, 0.8 100 100 \, 0.2 100 100
\, 0 200 200;
#X text 1237 214 toggle to play theme;
#X connect 6 0 10 0;
#X connect 8 0 9 0;
#X connect 10 0 13 0;
#X connect 11 0 10 0;
#X connect 14 0 168 0;
#X connect 16 0 27 0;
#X connect 17 0 16 0;
#X connect 18 0 21 0;
#X connect 18 0 164 0;
#X connect 19 0 18 0;
#X connect 20 0 18 1;
#X connect 21 0 22 0;
#X connect 21 0 160 0;
#X connect 22 0 21 1;
#X connect 23 0 14 1;
#X connect 24 0 17 1;
#X connect 25 0 54 0;
#X connect 26 0 167 0;
#X connect 27 0 26 0;
#X connect 27 0 29 0;
#X connect 28 0 167 1;
#X connect 29 0 28 0;
#X connect 30 0 14 0;
#X connect 31 0 26 1;
#X connect 32 0 28 1;
#X connect 33 0 31 0;
#X connect 33 0 32 0;
#X connect 34 0 33 0;
#X connect 35 0 20 0;
#X connect 36 0 154 0;
#X connect 37 0 17 0;
#X connect 38 0 17 0;
#X connect 39 0 17 0;
#X connect 40 0 17 0;
#X connect 41 0 17 0;
#X connect 42 0 17 0;
#X connect 43 0 17 0;
#X connect 44 0 17 0;
#X connect 45 0 17 0;
#X connect 46 0 17 0;
#X connect 47 0 17 0;
#X connect 48 0 17 0;
#X connect 49 0 41 0;
#X connect 49 1 42 0;
#X connect 49 2 43 0;
#X connect 49 3 44 0;
#X connect 49 4 37 0;
#X connect 49 5 38 0;
#X connect 49 6 39 0;
#X connect 49 7 45 0;
#X connect 49 8 46 0;
#X connect 49 9 47 0;
#X connect 49 10 48 0;
#X connect 49 11 40 0;
#X connect 49 12 50 0;
#X connect 49 13 51 0;
#X connect 49 14 52 0;
#X connect 49 15 53 0;
#X connect 50 0 17 0;
#X connect 51 0 17 0;
#X connect 52 0 17 0;
#X connect 53 0 17 0;
#X connect 54 0 24 0;
#X connect 55 0 56 0;
#X connect 55 0 56 1;
#X connect 57 0 63 0;
#X connect 58 0 57 0;
#X connect 59 0 55 1;
#X connect 60 0 58 1;
#X connect 61 0 155 0;
#X connect 62 0 66 0;
#X connect 63 0 62 0;
#X connect 63 0 65 0;
#X connect 64 0 66 1;
#X connect 65 0 64 0;
#X connect 66 0 67 0;
#X connect 67 0 55 0;
#X connect 68 0 62 1;
#X connect 69 0 68 0;
#X connect 69 0 156 0;
#X connect 70 0 69 0;
#X connect 71 0 58 0;
#X connect 72 0 49 0;
#X connect 73 0 74 0;
#X connect 74 0 71 0;
#X connect 74 1 75 0;
#X connect 74 2 76 0;
#X connect 74 3 77 0;
#X connect 74 4 78 0;
#X connect 74 5 79 0;
#X connect 74 6 80 0;
#X connect 74 7 81 0;
#X connect 74 8 82 0;
#X connect 74 9 83 0;
#X connect 74 10 93 0;
#X connect 74 11 84 0;
#X connect 75 0 58 0;
#X connect 76 0 58 0;
#X connect 77 0 58 0;
#X connect 78 0 58 0;
#X connect 79 0 58 0;
#X connect 80 0 58 0;
#X connect 81 0 58 0;
#X connect 82 0 58 0;
#X connect 83 0 58 0;
#X connect 84 0 63 0;
#X connect 86 0 91 0;
#X connect 87 0 86 0;
#X connect 88 0 95 1;
#X connect 89 0 87 1;
#X connect 90 0 92 0;
#X connect 91 0 152 0;
#X connect 92 0 89 0;
#X connect 93 0 58 0;
#X connect 94 0 96 0;
#X connect 95 0 85 0;
#X connect 95 0 85 1;
#X connect 96 0 127 0;
#X connect 96 0 135 0;
#X connect 96 0 123 0;
#X connect 96 1 128 0;
#X connect 96 1 136 0;
#X connect 96 1 126 0;
#X connect 96 2 129 0;
#X connect 96 2 137 0;
#X connect 96 2 124 0;
#X connect 96 3 130 0;
#X connect 96 3 138 0;
#X connect 96 3 125 0;
#X connect 97 0 133 0;
#X connect 99 0 104 0;
#X connect 100 0 99 0;
#X connect 101 0 107 1;
#X connect 102 0 100 1;
#X connect 103 0 105 0;
#X connect 104 0 153 0;
#X connect 105 0 102 0;
#X connect 106 0 109 1;
#X connect 107 0 98 0;
#X connect 108 0 110 0;
#X connect 108 0 134 0;
#X connect 109 0 98 1;
#X connect 110 0 101 0;
#X connect 112 0 117 0;
#X connect 113 0 112 0;
#X connect 114 0 120 1;
#X connect 115 0 113 1;
#X connect 116 0 118 0;
#X connect 117 0 151 0;
#X connect 118 0 115 0;
#X connect 119 0 122 1;
#X connect 120 0 111 0;
#X connect 121 0 132 0;
#X connect 121 0 131 0;
#X connect 122 0 111 1;
#X connect 123 0 113 0;
#X connect 123 0 121 0;
#X connect 124 0 113 0;
#X connect 124 0 121 0;
#X connect 125 0 113 0;
#X connect 125 0 121 0;
#X connect 126 0 113 0;
#X connect 126 0 121 0;
#X connect 127 0 87 0;
#X connect 127 0 97 0;
#X connect 128 0 87 0;
#X connect 128 0 97 0;
#X connect 129 0 87 0;
#X connect 129 0 97 0;
#X connect 130 0 87 0;
#X connect 130 0 97 0;
#X connect 131 0 119 0;
#X connect 132 0 114 0;
#X connect 133 0 88 0;
#X connect 134 0 106 0;
#X connect 135 0 100 0;
#X connect 135 0 108 0;
#X connect 136 0 100 0;
#X connect 136 0 108 0;
#X connect 137 0 100 0;
#X connect 137 0 108 0;
#X connect 138 0 100 0;
#X connect 138 0 108 0;
#X connect 139 0 19 0;
#X connect 139 0 154 0;
#X connect 151 0 120 0;
#X connect 151 0 122 0;
#X connect 152 0 95 0;
#X connect 153 0 107 0;
#X connect 153 0 109 0;
#X connect 154 0 20 0;
#X connect 155 0 60 0;
#X connect 156 0 64 1;
#X connect 157 0 59 0;
#X connect 159 0 158 0;
#X connect 161 0 72 0;
#X connect 162 0 73 0;
#X connect 163 0 94 0;
#X connect 165 0 199 0;
#X connect 166 0 157 0;
#X connect 167 0 30 0;
#X connect 168 0 15 0;
#X connect 168 0 15 1;
#X connect 169 0 170 0;
#X connect 171 0 159 0;
#X connect 172 0 173 0;
#X connect 173 0 200 0;
#X connect 173 0 171 0;
#X connect 175 0 208 0;
#X connect 175 0 213 0;
#X connect 176 0 177 0;
#X connect 176 0 177 1;
#X connect 178 0 176 1;
#X connect 179 0 207 0;
#X connect 179 0 198 0;
#X connect 180 0 179 0;
#X connect 181 0 175 0;
#X connect 184 0 185 0;
#X connect 185 0 188 0;
#X connect 185 0 211 0;
#X connect 185 0 202 0;
#X connect 187 0 176 0;
#X connect 188 0 191 0;
#X connect 189 0 196 0;
#X connect 190 0 189 1;
#X connect 191 0 193 0;
#X connect 191 0 193 1;
#X connect 192 0 191 1;
#X connect 194 0 189 0;
#X connect 196 0 174 0;
#X connect 196 0 174 1;
#X connect 198 0 187 0;
#X connect 199 0 23 0;
#X connect 200 0 169 0;
#X connect 201 0 203 0;
#X connect 202 0 203 0;
#X connect 203 0 204 0;
#X connect 203 1 204 1;
#X connect 203 2 205 0;
#X connect 205 0 201 0;
#X connect 206 0 201 0;
#X connect 207 0 178 0;
#X connect 208 0 194 0;
#X connect 211 0 192 0;
#X connect 213 0 190 0;
